<svg xmlns="http://www.w3.org/2000/svg" version="1.1" width="600px" height="600px" viewBox="0 0 200 200" style="overflow:hidden!important;"><defs id="SvgjsDefs10559"><radialGradient id="SvgjsRadialGradient10625" cx="100" cy="114" r="41" gradientUnits="userSpaceOnUse" class="svga-on-canvas-facehighlight-gradient-single-0"><stop id="SvgjsStop10626" stop-opacity="0.5" stop-color="#daa47d" offset="0" ></stop><stop id="SvgjsStop10627" stop-opacity="0" stop-color="#cb8d60" offset="0.9" ></stop></radialGradient><radialGradient id="SvgjsRadialGradient10629" cx="100" cy="54" r="37" gradientUnits="userSpaceOnUse" class="svga-on-canvas-facehighlight-gradient-single-1"><stop id="SvgjsStop10630" stop-opacity="0.5" stop-color="#daa47d" offset="0" ></stop><stop id="SvgjsStop10631" stop-opacity="0" stop-color="#cb8d60" offset="0.9" ></stop></radialGradient><radialGradient id="SvgjsRadialGradient10682" cx="121.986" cy="82.496" fx="133.239" fy="82.527" r="16.003" gradientTransform="matrix(0.9998 0.0208 0.0166 -0.7998 -45.3195 145.9395)" gradientUnits="userSpaceOnUse" class="svga-on-canvas-eyesfront-gradient-left-3"><stop id="SvgjsStop10683" stop-opacity="1" stop-color="#e59e82" offset="0" ></stop><stop id="SvgjsStop10684" stop-opacity="0.3" stop-color="#e59e82" offset="0.7" ></stop><stop id="SvgjsStop10685" stop-opacity="0" stop-color="#f4baa3" offset="1" ></stop></radialGradient><radialGradient id="SvgjsRadialGradient10687" cx="68.931" cy="105.995" r="29.524" gradientTransform="matrix(1.0336 0 0 1.0336 -1.6796 1.3127)" gradientUnits="userSpaceOnUse" class="svga-on-canvas-eyesfront-gradient-left-4"><stop id="SvgjsStop10688" stop-opacity="0" stop-color="#000000" offset="0.95" ></stop><stop id="SvgjsStop10689" stop-opacity="0.2" stop-color="#000000" offset="1" ></stop></radialGradient><radialGradient id="SvgjsRadialGradient10702" cx="121.587" cy="82.496" fx="132.839" fy="82.527" r="16.003" gradientTransform="matrix(-0.9998 0.0208 -0.0166 -0.7998 244.5208 145.9478)" gradientUnits="userSpaceOnUse" class="svga-on-canvas-eyesfront-gradient-right-3"><stop id="SvgjsStop10703" stop-opacity="1" stop-color="#e59e82" offset="0" ></stop><stop id="SvgjsStop10704" stop-opacity="0.3" stop-color="#e59e82" offset="0.7" ></stop><stop id="SvgjsStop10705" stop-opacity="0" stop-color="#f4baa3" offset="1" ></stop></radialGradient><radialGradient id="SvgjsRadialGradient10707" cx="69.316" cy="105.995" r="29.524" gradientTransform="matrix(-1.0336 0 0 1.0336 201.6796 1.3127)" gradientUnits="userSpaceOnUse" class="svga-on-canvas-eyesfront-gradient-right-4"><stop id="SvgjsStop10708" stop-opacity="0" stop-color="#000000" offset="0.95" ></stop><stop id="SvgjsStop10709" stop-opacity="0.2" stop-color="#000000" offset="1" ></stop></radialGradient><radialGradient id="SvgjsRadialGradient10714" cx="-568.659" cy="-521.042" r="59.751" gradientTransform="matrix(0.096 -0.0248 0.0245 0.0961 141.2814 119.9893)" gradientUnits="userSpaceOnUse" class="svga-on-canvas-eyesiris-gradient-left-1"><stop id="SvgjsStop10715" stop-opacity="1" stop-color="#ffffff" offset="0" ></stop><stop id="SvgjsStop10716" stop-opacity="0" stop-color="#ffffff" offset="1" ></stop></radialGradient><radialGradient id="SvgjsRadialGradient10718" cx="-582.838" cy="-519.099" r="59.745" gradientTransform="matrix(0.0991 8.856319e-004 -0.0011 0.0991 131.1134 135.9855)" gradientUnits="userSpaceOnUse" class="svga-on-canvas-eyesiris-gradient-left-2"><stop id="SvgjsStop10719" stop-opacity="1" stop-color="#ffffff" offset="0" ></stop><stop id="SvgjsStop10720" stop-opacity="0" stop-color="#ffffff" offset="1" ></stop></radialGradient><linearGradient id="SvgjsLinearGradient10724" x1="122.67" y1="88.268" x2="123.606" y2="87.152" gradientTransform="matrix(1 0 0 1 -52 0)" gradientUnits="userSpaceOnUse" class="svga-on-canvas-eyesiris-gradient-left-5"><stop id="SvgjsStop10725" stop-opacity="1" stop-color="#ffffff" offset="0" ></stop><stop id="SvgjsStop10726" stop-opacity="0" stop-color="#ffffff" offset="1" ></stop></linearGradient><linearGradient id="SvgjsLinearGradient10728" x1="127.212" y1="82.296" x2="126.463" y2="83.189" gradientTransform="matrix(1 0 0 1 -52 0)" gradientUnits="userSpaceOnUse" class="svga-on-canvas-eyesiris-gradient-left-6"><stop id="SvgjsStop10729" stop-opacity="1" stop-color="#ffffff" offset="0" ></stop><stop id="SvgjsStop10730" stop-opacity="0" stop-color="#ffffff" offset="1" ></stop></linearGradient><linearGradient id="SvgjsLinearGradient10732" x1="129.636" y1="79.822" x2="127.91" y2="81.879" gradientTransform="matrix(1 0 0 1 -52 0)" gradientUnits="userSpaceOnUse" class="svga-on-canvas-eyesiris-gradient-left-7"><stop id="SvgjsStop10733" stop-opacity="1" stop-color="#ffffff" offset="0" ></stop><stop id="SvgjsStop10734" stop-opacity="0" stop-color="#ffffff" offset="1" ></stop></linearGradient><radialGradient id="SvgjsRadialGradient10737" cx="-568.654" cy="-521.042" r="59.752" gradientTransform="matrix(0.096 -0.0248 0.0245 0.0961 193.2804 119.9894)" gradientUnits="userSpaceOnUse" class="svga-on-canvas-eyesiris-gradient-right-1"><stop id="SvgjsStop10738" stop-opacity="1" stop-color="#ffffff" offset="0" ></stop><stop id="SvgjsStop10739" stop-opacity="0" stop-color="#ffffff" offset="1" ></stop></radialGradient><radialGradient id="SvgjsRadialGradient10741" cx="-582.833" cy="-519.102" r="59.747" gradientTransform="matrix(0.0991 8.856319e-004 -0.0011 0.0991 183.1126 135.9856)" gradientUnits="userSpaceOnUse" class="svga-on-canvas-eyesiris-gradient-right-2"><stop id="SvgjsStop10742" stop-opacity="1" stop-color="#ffffff" offset="0" ></stop><stop id="SvgjsStop10743" stop-opacity="0" stop-color="#ffffff" offset="1" ></stop></radialGradient><linearGradient id="SvgjsLinearGradient10747" x1="122.67" y1="88.268" x2="123.606" y2="87.152" gradientUnits="userSpaceOnUse" class="svga-on-canvas-eyesiris-gradient-right-5"><stop id="SvgjsStop10748" stop-opacity="1" stop-color="#ffffff" offset="0" ></stop><stop id="SvgjsStop10749" stop-opacity="0" stop-color="#ffffff" offset="1" ></stop></linearGradient><linearGradient id="SvgjsLinearGradient10751" x1="127.212" y1="82.296" x2="126.463" y2="83.189" gradientUnits="userSpaceOnUse" class="svga-on-canvas-eyesiris-gradient-right-6"><stop id="SvgjsStop10752" stop-opacity="1" stop-color="#ffffff" offset="0" ></stop><stop id="SvgjsStop10753" stop-opacity="0" stop-color="#ffffff" offset="1" ></stop></linearGradient><linearGradient id="SvgjsLinearGradient10755" x1="129.636" y1="79.822" x2="127.91" y2="81.879" gradientUnits="userSpaceOnUse" class="svga-on-canvas-eyesiris-gradient-right-7"><stop id="SvgjsStop10756" stop-opacity="1" stop-color="#ffffff" offset="0" ></stop><stop id="SvgjsStop10757" stop-opacity="0" stop-color="#ffffff" offset="1" ></stop></linearGradient><radialGradient id="SvgjsRadialGradient10781" cx="100" cy="225" r="250" gradientUnits="userSpaceOnUse" class="svga-on-canvas-backs-gradient-single-1"><stop id="SvgjsStop10782" stop-opacity="0" stop-color="#9de0ad" offset="0" ></stop><stop id="SvgjsStop10783" stop-opacity="1" stop-color="#7dd191" offset="1" ></stop></radialGradient><linearGradient id="SvgjsLinearGradient10788" x1="100" y1="170" x2="100" y2="132" gradientUnits="userSpaceOnUse" class="svga-on-canvas-chinshadow-gradient-single-0"><stop id="SvgjsStop10789" stop-opacity="0.8" stop-color="#bc7746" offset="0" ></stop><stop id="SvgjsStop10790" stop-opacity="1" stop-color="#9d521b" offset="0.7" ></stop></linearGradient><radialGradient id="SvgjsRadialGradient10800" cx="125.2" cy="85" r="13" gradientTransform="matrix(-1 0 0 1 200 0)" gradientUnits="userSpaceOnUse" class="svga-on-canvas-eyesback-gradient-left-0"><stop id="SvgjsStop10801" stop-opacity="1" stop-color="#ffffff" offset="0" ></stop><stop id="SvgjsStop10802" stop-opacity="1" stop-color="#fdfefe" offset="0.544" ></stop><stop id="SvgjsStop10803" stop-opacity="1" stop-color="#f6f8f9" offset="0.74" ></stop><stop id="SvgjsStop10804" stop-opacity="1" stop-color="#eaeff2" offset="0.879" ></stop><stop id="SvgjsStop10805" stop-opacity="1" stop-color="#d9e3e8" offset="0.992" ></stop><stop id="SvgjsStop10806" stop-opacity="1" stop-color="#d8e2e7" offset="1" ></stop></radialGradient><radialGradient id="SvgjsRadialGradient10808" cx="124.801" cy="85" r="13" gradientUnits="userSpaceOnUse" class="svga-on-canvas-eyesback-gradient-right-0"><stop id="SvgjsStop10809" stop-opacity="1" stop-color="#ffffff" offset="0" ></stop><stop id="SvgjsStop10810" stop-opacity="1" stop-color="#fdfefe" offset="0.544" ></stop><stop id="SvgjsStop10811" stop-opacity="1" stop-color="#f6f8f9" offset="0.74" ></stop><stop id="SvgjsStop10812" stop-opacity="1" stop-color="#eaeff2" offset="0.879" ></stop><stop id="SvgjsStop10813" stop-opacity="1" stop-color="#d9e3e8" offset="0.992" ></stop><stop id="SvgjsStop10814" stop-opacity="1" stop-color="#d8e2e7" offset="1" ></stop></radialGradient><radialGradient id="SvgjsRadialGradient10816" cx="125.2" cy="85" r="13" gradientTransform="matrix(-1 0 0 1 200 0)" gradientUnits="userSpaceOnUse" class="svga-on-canvas-eyesfront-gradient-left-0"><stop id="SvgjsStop10817" stop-opacity="1" stop-color="#ffffff" offset="0" ></stop><stop id="SvgjsStop10818" stop-opacity="1" stop-color="#fdfefe" offset="0.544" ></stop><stop id="SvgjsStop10819" stop-opacity="1" stop-color="#f6f8f9" offset="0.74" ></stop><stop id="SvgjsStop10820" stop-opacity="1" stop-color="#eaeff2" offset="0.879" ></stop><stop id="SvgjsStop10821" stop-opacity="1" stop-color="#d9e3e8" offset="0.992" ></stop><stop id="SvgjsStop10822" stop-opacity="1" stop-color="#d8e2e7" offset="1" ></stop></radialGradient><radialGradient id="SvgjsRadialGradient10827" cx="124.801" cy="85" r="13" gradientUnits="userSpaceOnUse" class="svga-on-canvas-eyesfront-gradient-right-0"><stop id="SvgjsStop10828" stop-opacity="1" stop-color="#ffffff" offset="0" ></stop><stop id="SvgjsStop10829" stop-opacity="1" stop-color="#fdfefe" offset="0.544" ></stop><stop id="SvgjsStop10830" stop-opacity="1" stop-color="#f6f8f9" offset="0.74" ></stop><stop id="SvgjsStop10831" stop-opacity="1" stop-color="#eaeff2" offset="0.879" ></stop><stop id="SvgjsStop10832" stop-opacity="1" stop-color="#d9e3e8" offset="0.992" ></stop><stop id="SvgjsStop10833" stop-opacity="1" stop-color="#d8e2e7" offset="1" ></stop></radialGradient><linearGradient id="SvgjsLinearGradient10880" x1="100" y1="141" x2="100" y2="137" gradientUnits="userSpaceOnUse" class="svga-on-canvas-mouth-gradient-single-0"><stop id="SvgjsStop10881" stop-opacity="1" stop-color="#c38253" offset="0.1" ></stop><stop id="SvgjsStop10882" stop-opacity="1" stop-color="#bc7746" offset="1" ></stop></linearGradient></defs><g id="svga-group-wrapper"><g id="svga-group-backs-single"><path id="SvgjsPath10779" d="M225 225H-25V-25h250V225z" fill="#9de0ad" stroke-width="none" opacity="1"></path><path id="SvgjsPath10780" d="M99.093,225h-0.221L-25-23.26V-25H1.992L99.093,225z M58.936-25H34.616l64.735,250h0.193L58.936-25z M-25,146.607v15.437L96.026,225h0.738L-25,146.607z M112.078-25H88.791l10.991,250h0.185L112.078-25z M-25,103.112v21.017L97.442,225h0.412L-25,103.112z M92.652,225H94.6L-25,179.631v12.78L92.652,225z M-25,36.37v33.745L98.278,225h0.281L-25,36.37z M225,162.044v-15.437L103.236,225h0.737L225,162.044z M225,192.411v-12.78L105.4,225h1.947L225,192.411z M225,124.128v-21.016L102.146,225h0.412L225,124.128z M165.383-25h-24.318l-40.609,250h0.193L165.383-25z M225,70.114V36.37L101.44,225h0.281L225,70.114z M225-23.261V-25h-26.992l-97.101,250h0.221L225-23.261z" fill="url(#SvgjsRadialGradient10781)" opacity="1"></path></g><g id="svga-group-humanwrap-move" transform="matrix(1,0,0,1,0,0)"><g id="svga-group-humanwrap" transform="matrix(1,0,0,1,0,0)"><g id="svga-group-hair-back-move" transform="matrix(1,0,0,1,0,0)"><g id="svga-group-hair-back" transform="matrix(1,0,0,1,0,0)"><path id="SvgjsPath10791" d="M146.969 104.885c-46.51-1.001-92.949 0.02-93.95 0.02 -2.675 4.014-4.176 11.498-3.28 15.61 0.934 4.212 4.441 8.009 5.66 16.46 0.07 0.83-0.04 1.71 0.3 2.76 0.35 1.001 2.022 3.206 3.34 3.44 0.129-0.016 0.381-0.046 0.5-0.061 0.523 0.935 1.48 1.218 2.11 0.91 1.516 2.89 3.099-0.453 5.14 1.32 3.383 2.757 3.832 0.049 6.58-0.931 2.146-0.04 5.034 3.43 7.71 0.761 5.499-5.354 8.082 4.5 12.97 1.869 1-0.506 3.922-2.7 5.96-1.42 3.889-2.455 5.717 5.161 11.56-0.05 5.623-5.015 6.653 1.352 10.72 0.51 1.852-0.43 2.478-1.777 4.35-1.67 2.654 1.003 3.25 3.637 6.57 0.931 2.014-1.75 3.577 1.521 5.141-1.32 0.62 0.311 1.589 0.028 2.109-0.91 0.12 0.015 0.38 0.045 0.51 0.061 1.243-0.235 2.975-2.42 3.341-3.44 0.488-1.559-0.315-5.524 3.609-13.46C151.914 118.111 151.265 110.834 146.969 104.885z" fill="#351f15" stroke-width="none" opacity="1"></path><path id="SvgjsPath10792" d="M146.969 104.885c-46.51-1.001-92.949 0.02-93.95 0.02 -2.675 4.014-4.176 11.498-3.28 15.61 0.934 4.212 4.441 8.009 5.66 16.46 0.07 0.83-0.04 1.71 0.3 2.76 0.35 1.001 2.022 3.206 3.34 3.44 0.129-0.016 0.381-0.046 0.5-0.061 0.523 0.935 1.48 1.218 2.11 0.91 1.516 2.89 3.099-0.453 5.14 1.32 3.383 2.757 3.832 0.049 6.58-0.931 2.146-0.04 5.034 3.43 7.71 0.761 5.499-5.354 8.082 4.5 12.97 1.869 1-0.506 3.922-2.7 5.96-1.42 3.889-2.455 5.717 5.161 11.56-0.05 5.623-5.015 6.653 1.352 10.72 0.51 1.852-0.43 2.478-1.777 4.35-1.67 2.654 1.003 3.25 3.637 6.57 0.931 2.014-1.75 3.577 1.521 5.141-1.32 0.62 0.311 1.589 0.028 2.109-0.91 0.12 0.015 0.38 0.045 0.51 0.061 1.243-0.235 2.975-2.42 3.341-3.44 0.488-1.559-0.315-5.524 3.609-13.46C151.914 118.111 151.265 110.834 146.969 104.885zM147.039 125.775c-5.513 10.228-2.238 14.543-6.01 16.14 -0.05 0-0.09 0.011-0.141 0.03 -0.312-0.07-0.85-0.322-1.14-0.46 -0.006 0.015-0.19 0.59-0.36 1.04 -0.058 0.078-0.041 0.102-0.199 0.26 -0.051 0.021-0.09 0.05-0.13 0.08 -0.37 0.084-0.932-0.389-1.28-0.63 -0.951 2.268-1.016 1.841-1.86 1.57 -2.987-0.938-3.279 0.839-4.62 1.39 -1.356 0.511-2.175-1.354-4.46-2.03 -2.538-0.171-3.387 1.449-4.89 1.75 -2.598 0.548-5.365-5.445-11.05 0.08 -5.063 4.924-6.429-2.163-10.91 0.24 -4.396-2.515-5.807 4.695-10.95-0.3 -5.512-5.221-8.704-0.136-9.84 0.01 -1.911 0.413-2.582-1.3-5.19-1.8 -2.841 0-3.702 2.653-5.31 2.05 -1.344-0.553-1.628-2.329-4.62-1.39 -1 0.32-1.005 0.471-1.86-1.57 -0.344 0.238-0.908 0.715-1.28 0.63 -0.04-0.03-0.08-0.06-0.13-0.08 -0.379-0.509-0.325-0.681-0.56-1.3 0.191-0.098-0.692 0.358-1.14 0.46 -0.04-0.02-0.09-0.03-0.13-0.03 -0.2-0.08-0.47-0.35-0.73-0.67 -1.661-2.134-1.418-1.179-1.63-4.35 -1.82-12.19-11.412-17.353-3.55-31.81 30.144 0.618 62.703 0.696 93.88 0.02C151.487 113.794 150.327 119.547 147.039 125.775z" fill="#26130b" stroke-width="none" opacity="1"></path></g></g><g id="svga-group-humanbody-single"><path id="SvgjsPath10632" d="M195.417 199.778c-2.196-4.746-8.195-11.779-14.86-13.722 -8.239-2.403-26.837-5.308-33.733-6.923 -5.528-1.296-16.662-11.294-20.564-14.65 -0.7-0.6-1.273-1.839-1.287-2.76 -0.139-10.864 4.195-39.724 4.195-39.724H100 70.833c0 0 4.334 28.859 4.193 39.724 -0.011 0.921-0.587 2.16-1.285 2.76 -3.902 3.356-15.036 13.354-20.564 14.65 -6.897 1.615-25.495 4.619-33.733 7.022 -6.667 1.942-12.664 8.876-14.86 13.622 -3.708 8.008-4.584 22.5-4.584 35h100 100C200 222.278 199.123 207.786 195.417 199.778z" fill="#cb8d60" stroke-width="none" opacity="1" stroke="none"></path><path id="SvgjsPath10633" d="M159.156 184.058c24.342 3.542 34.586 8.708 37.794 50.721H200c0-12.5-0.877-26.992-4.583-35 -2.196-4.746-8.195-11.779-14.86-13.722 -8.239-2.403-26.837-5.308-33.733-6.923 -5.528-1.296-18.242-12.069-21.643-16.35 3.36 4.704 12.791 15.605 21.054 18.46C150.188 182.61 153.48 183.232 159.156 184.058zM53.766 181.244c8.263-2.854 17.693-13.756 21.054-18.46 -3.4 4.28-16.114 15.054-21.643 16.35 -6.896 1.615-25.494 4.619-33.733 7.022 -6.665 1.942-12.664 8.876-14.86 13.622 -3.706 8.008-4.583 22.5-4.583 35h3.05c3.188-41.744 13.475-47.183 37.794-50.721C46.52 183.232 49.813 182.61 53.766 181.244z" fill="#daa47d" stroke-width="none" opacity="1" stroke="none"></path><path id="SvgjsPath10634" d="M95.646 197.62c0 0-5.074-1.609-7.083-2.379 -10.449-4.009-44.395-6.607-44.395-6.607s35.754 1.419 43.644 2.779c-0.458-4.767-3.017-20.004-3.017-20.004s5.149 16.815 6.409 21.057C91.878 194.734 95.646 197.62 95.646 197.62zM106.445 196.278c-0.089 0.073-0.191 0.168-0.302 0.268C106.256 196.461 106.358 196.372 106.445 196.278zM95.646 197.62c0 0 2.893 2.992 4.347 3.03 1.91 0.051 4.828-2.899 6.151-4.104 -1.265 0.957-4.159 1.391-5.31 1.436C99.504 198.033 95.646 197.62 95.646 197.62zM116.664 190.101c-1.545 0.248-4.386 0.789-4.386 0.789l2.287-14.89c-0.646 3.071-4.474 16.211-8.12 20.278 1.91-1.616 6.158-2.391 8.324-2.704 10.236-1.484 10.232-1.483 41.062-4.94C155.831 188.634 126.76 188.479 116.664 190.101z" fill="#bc7746" stroke-width="none" opacity="1" stroke="none"></path><path id="SvgjsPath10635" d="M195.417 199.778c-2.196-4.746-8.195-11.779-14.86-13.722 -8.239-2.403-26.837-5.308-33.733-6.923 -5.528-1.296-16.662-11.294-20.564-14.65 -0.7-0.6-1.273-1.839-1.287-2.76 -0.139-10.864 4.195-39.724 4.195-39.724H100 70.833c0 0 4.334 28.859 4.193 39.724 -0.011 0.921-0.587 2.16-1.285 2.76 -3.902 3.356-15.036 13.354-20.564 14.65 -6.897 1.615-25.495 4.619-33.733 7.022 -6.667 1.942-12.664 8.876-14.86 13.622 -3.708 8.008-4.584 22.5-4.584 35h100 100C200 222.278 199.123 207.786 195.417 199.778z" fill="none" stroke="#9d521b" stroke-width="1.5" opacity="1"></path></g><g id="svga-group-chinshadow-single"><path id="SvgjsPath10787" d="M103.705 170.189c5.292-1.558 13.31-7.012 20.631-12.852 0.352-6.636 1.433-15.887 2.396-23.284 -14.957-2.455-38.464-2.408-53.454 0.081 0.95 7.3 2.01 16.38 2.372 22.974 7.055 5.816 14.789 11.372 20.685 13.087C97.144 170.431 102.896 170.428 103.705 170.189z" fill="url(#SvgjsLinearGradient10788)" opacity="1"></path></g><g id="svga-group-clothes-single"><path id="SvgjsPath10775" d="M111.806 235.888c-19.135 0-41.455-0.074-68.233-0.229l-23.679-0.128c-14.298-0.078-15.141-0.094-16.887-0.094l-4.899 0.007c-4.571-41.875 14.41-52.87 43.762-56.708 7.789-1.097 15.449-3.097 21.459-6.972 16.327 22.243 64.811 17.562 73.103-0.629 1.39 0.53 2.539 1.215 3.977 1.734 4.666 3.433 11.072 5.836 17.628 6.199 26.008 1.441 44.419 12.996 44.057 54.64 0.003 0.165 0.004 1.175-0.013 1.49 -12.513 0-17.206 0.121-27.034 0.262 -13.331 0.19-29.923 0.427-63.229 0.427C111.813 235.888 111.81 235.888 111.806 235.888z" fill="#1d282e" stroke-width="none" opacity="1" stroke="none"></path><path id="SvgjsPath10776" d="M201.055 234.64c-0.41-7.385-4.064-28.058-10.36-37.541 -12.482-18.805-42.26-12.206-49.132-19.693 -4.986 10.159-24.975 16.595-31.594 17.54 19.181-6.36 27.237-10.959 30.42-21.87 6.405 8.33 41.074 1.971 54.717 24.331C199.101 203.954 202.9 224.793 201.055 234.64zM55.811 177.628c1.357-0.315 2.034-1.249 3.381-1.614l-1.426-1.891c-9.049 7.052-42.909 2.645-54.519 24.036 -3.659 6.741-6.127 22.788-4.192 36.439 0.537-8.384 0.799-26.314 7.095-35.798 11.324-17.06 31.974-12.553 47.619-19.775 6.983 8.6 17.888 12.828 28.984 14.577C68.832 189.971 60.85 183.84 55.811 177.628z" fill="#2d373d" stroke-width="none" opacity="1" stroke="none"></path><path id="SvgjsPath10777" d="M135.31 173.244c-5.532 11.514-47.35 24.923-70.93 0.879 -1.466 0.622-5.852 2.112-5.852 2.112 17.176 23.386 67.511 23.534 80.909-0.114C139.378 176.098 136.672 173.936 135.31 173.244z" fill="#101a1f" stroke-width="none" opacity="1" stroke="none"></path><path id="SvgjsPath10778" d="M136.38 171.002c-9.413 18.822-58.397 21.485-73.012 0.632 -5.337 1.578-10.469 4.941-15.636 5.782C16.812 182.021-6.046 184.335-2 235.552c9.94 0-6.611-0.065 45.571 0.215 123.59 0.71 119.562-0.461 158.606-0.461 0.029-0.14 0.015-1.452 0.021-1.596 2.096-56.436-30.852-53.104-53.12-56.995 -3.144-0.718-6.066-2.773-8.635-3.945C139.024 172.121 137.818 171.538 136.38 171.002zM63.014 172.265c12.974 23.392 64.219 18.699 74.113 0.101 1.2 0.504 1.507 0.704 2.898 1.197 -10.248 21.489-60.942 28.337-81.677 1.163C58.494 174.685 61.552 172.813 63.014 172.265zM-0.845 234.778c-2.421-26.431 1.797-48.043 32.78-53.345 10.276-1.896 16.557-1.962 25.384-5.794 16.763 27.405 72.098 23.158 83.598-1.305 1.652 1.409 4.228 3.03 7.405 3.785 18.098 4.299 54.838-0.894 52.898 56.658C147.163 234.075 102.355 232.433-0.845 234.778z" fill="#000000" stroke-width="none" opacity="1" stroke="none"></path></g><g id="svga-group-head" transform="matrix(1,0,0,1,0,0)"><g id="svga-group-ears-left-move" transform="matrix(1,0,0,1,0,0)"><g id="svga-group-ears-left" transform="matrix(1,0,0,1,0,0)"><path id="SvgjsPath10886" d="M47.001 83.231c-1.376-2.453-5.638-8.48-9.98-7.003 -2.749 0.935-3.293 3.993-3.735 6.693 -0.588 3.591 0.471 10.694 1.389 13.26 0.881 2.467 3.533 7.23 5.264 9.045 2.13 2.225 4.775 9.324 5.194 10.061 0.66 1.162 1.536 2.911 4.122 2.692 2.853-0.244 4.584-1.85 5.856-2.121C58.253 115.192 50.582 89.616 47.001 83.231z" fill="#cb8d60" stroke="#9d521b" stroke-width="1.5" opacity="1"></path><path id="SvgjsPath10887" d="M44.197 98.104c-0.132-0.581 0.007-1.56 0.142-2.504 0.124-0.861 0.24-1.675 0.169-2.251 -0.267-2.154-1.773-6.249-2.757-8.467 -1.132-2.554-2.963-5.77-5.262-6.599 -0.95-0.343-1.575 0.067-1.938 0.484 -0.266 0.305-0.325 0.665-0.238 0.707 0.086 0.042 0.285-0.254 0.572-0.535 0.235-0.229 0.579-0.426 1.051-0.385 -0.19 1.073-1.167 6.883-0.744 10.845 0.333 3.115 1.593 5.442 1.79 5.791 0.029 0.367 0.077 0.726 0.148 1.075 0.929 4.547 4.971 9.717 6.378 11.409 0.259 0.313 0.531 0.497 0.598 0.423 0.066-0.076-0.094-0.387-0.353-0.7 -1.388-1.679-5.391-6.831-6.289-11.218 -0.952-4.656 2.318-11.556 3.048-13.017 0.371 0.685 0.687 1.344 0.93 1.893 0.19 0.431 0.402 0.936 0.619 1.479 -0.429 0.762-3.434 6.32-2.338 10.767 0.406 1.641 2.235 3.755 3.447 4.333 0.667 0.32 0.919 0.797 1.209 1.349 0.336 0.64 0.718 1.365 1.828 1.892 0.225 0.108 0.429 0.151 0.61 0.151 0.313 0 0.551-0.135 0.725-0.293 0.018 0.28 0.017 0.64 0.009 0.97 -0.012 0.431 0.042 0.783 0.137 0.791 0.094 0.008 0.196-0.332 0.207-0.76 0.016-0.526 0.013-1.177-0.072-1.488 -0.248-0.917-1.008-1.953-1.813-3.048C45.221 100.116 44.403 99.003 44.197 98.104zM36.95 94.073c-2.177-7.139 0.656-13.3 1.144-14.28 0.85 0.822 1.6 1.919 2.21 2.995C39.86 83.646 37.041 89.271 36.95 94.073zM46.341 104.515c-1.004-0.475-1.339-1.115-1.666-1.733 -0.293-0.559-0.598-1.136-1.369-1.505 -0.168-0.081-0.352-0.203-0.542-0.343 -2.486-6.263 0.272-9.001 0.963-9.562 0.211 0.766 0.369 1.468 0.439 2.031 0.063 0.517-0.052 1.339-0.167 2.134 -0.142 0.985-0.286 2.004-0.137 2.664 0.226 0.982 1.069 2.131 1.884 3.242 0.723 0.986 1.466 2.003 1.721 2.832C47.359 104.439 47.017 104.836 46.341 104.515z" fill="#9d521b" stroke-width="none" opacity="1"></path></g></g><g id="svga-group-ears-right-move" transform="matrix(1,0,0,1,0,0)"><g id="svga-group-ears-right" transform="matrix(1,0,0,1,0,0)"><path id="SvgjsPath10888" d="M152.736 83.231c1.377-2.453 5.639-8.48 9.98-7.003 2.75 0.935 3.293 3.993 3.736 6.693 0.588 3.591-0.471 10.694-1.389 13.26 -0.881 2.467-3.533 7.23-5.266 9.045 -2.129 2.225-4.775 9.324-5.193 10.061 -0.658 1.162-1.535 2.911-4.121 2.692 -2.854-0.244-4.584-1.85-5.857-2.121C141.484 115.192 149.156 89.616 152.736 83.231z" fill="#cb8d60" stroke="#9d521b" stroke-width="1.5" opacity="1"></path><path id="SvgjsPath10889" d="M153.727 101.196c-0.805 1.096-1.564 2.131-1.813 3.048 -0.086 0.311-0.088 0.962-0.072 1.488 0.012 0.428 0.113 0.768 0.207 0.76s0.148-0.36 0.137-0.791c-0.008-0.331-0.008-0.69 0.01-0.97 0.174 0.158 0.412 0.293 0.725 0.293 0.182 0 0.385-0.043 0.609-0.151 1.109-0.526 1.492-1.252 1.828-1.892 0.289-0.552 0.543-1.028 1.209-1.349 1.213-0.578 3.041-2.692 3.447-4.333 1.096-4.447-1.908-10.005-2.338-10.767 0.217-0.544 0.43-1.049 0.619-1.479 0.244-0.549 0.559-1.208 0.93-1.893 0.73 1.46 4 8.361 3.049 13.017 -0.896 4.387-4.9 9.539-6.289 11.218 -0.258 0.313-0.418 0.624-0.352 0.7 0.066 0.074 0.338-0.109 0.598-0.423 1.406-1.692 5.449-6.862 6.379-11.409 0.07-0.35 0.117-0.708 0.146-1.075 0.197-0.349 1.459-2.676 1.791-5.791 0.422-3.961-0.555-9.772-0.744-10.845 0.473-0.042 0.814 0.156 1.051 0.385 0.287 0.281 0.486 0.577 0.572 0.535 0.086-0.042 0.027-0.402-0.238-0.707 -0.363-0.417-0.988-0.827-1.938-0.484 -2.299 0.83-4.131 4.045-5.262 6.599 -0.984 2.218-2.49 6.313-2.758 8.467 -0.072 0.576 0.045 1.39 0.17 2.251 0.135 0.945 0.273 1.924 0.141 2.504C155.336 99.003 154.518 100.116 153.727 101.196zM159.434 82.787c0.611-1.075 1.361-2.173 2.211-2.995 0.488 0.98 3.32 7.141 1.145 14.28C162.697 89.271 159.879 83.646 159.434 82.787zM152.27 104.275c0.254-0.829 0.998-1.846 1.721-2.832 0.816-1.111 1.658-2.26 1.885-3.242 0.148-0.66 0.004-1.679-0.137-2.664 -0.115-0.795-0.23-1.617-0.166-2.134 0.068-0.563 0.227-1.266 0.438-2.031 0.691 0.561 3.449 3.299 0.965 9.562 -0.191 0.14-0.375 0.263-0.543 0.343 -0.771 0.369-1.074 0.946-1.369 1.505 -0.326 0.618-0.662 1.258-1.666 1.733C152.721 104.836 152.379 104.439 152.27 104.275z" fill="#9d521b" stroke-width="none" opacity="1"></path></g></g><g id="svga-group-faceshape-wrap" transform="matrix(1,0,0,1,0,0)"><g id="svga-group-faceshape-single"><path id="SvgjsPath10784" d="M138.275 134.933c-7.56 7.762-25.273 22.52-34.57 25.257 -0.809 0.238-6.561 0.241-7.37 0.006 -10.402-3.025-26.524-18.002-34.545-25.284 -0.698-0.634-1.876-2.14-2.323-2.97 -6.875-12.77-18.452-54.948-18.462-54.995 -1.3-4.911-1.996-10.066-2.004-15.382C38.949 28.09 66.155 0.919 99.773 0.867c33.621-0.052 60.913 27.033 60.964 60.507 0.009 5.316-0.669 10.473-1.952 15.389 -0.015 0.047-11.729 42.121-18.293 55.052C140.06 132.667 138.942 134.247 138.275 134.933z" fill="#cb8d60" stroke-width="none" opacity="1" stroke="none"></path><path id="SvgjsPath10785" d="M122.923 5.375c19.396 9.496 32.911 30.588 32.944 55.131 0.009 5.316-0.615 10.473-1.796 15.389 -0.013 0.047-10.79 42.121-16.829 55.053 -0.398 0.852-1.426 2.432-2.039 3.117 -6.955 7.762-23.252 22.52-31.805 25.258 -0.744 0.238-6.036 0.24-6.781 0.006 -9.57-3.025-24.402-18.002-31.782-25.285 -0.642-0.633-1.726-2.139-2.137-2.969 -6.325-12.77-16.976-54.948-16.985-54.996 -1.196-4.911-1.836-10.066-1.844-15.382C43.835 36.099 57.351 14.919 76.79 5.389c-22.202 9.066-37.828 30.804-37.789 56.176 0.008 5.316 0.704 10.471 2.004 15.382 0.01 0.047 11.587 42.226 18.462 54.995 0.447 0.83 1.625 2.336 2.323 2.97 8.021 7.282 24.144 22.259 34.545 25.284 0.809 0.235 6.562 0.232 7.37-0.006 9.297-2.737 27.011-17.495 34.57-25.257 0.667-0.686 1.784-2.266 2.217-3.118 6.564-12.932 18.278-55.005 18.293-55.052 1.283-4.916 1.961-10.072 1.952-15.389C160.699 36.059 145.075 14.408 122.923 5.375z" fill="#c38253" stroke-width="none" opacity="1" stroke="none"></path><path id="SvgjsPath10786" d="M138.275 134.933c-7.56 7.762-25.273 22.52-34.57 25.257 -0.809 0.238-6.561 0.241-7.37 0.006 -10.402-3.025-26.524-18.002-34.545-25.284 -0.698-0.634-1.876-2.14-2.323-2.97 -6.875-12.77-18.452-54.948-18.462-54.995 -1.3-4.911-1.996-10.066-2.004-15.382C38.949 28.09 66.155 0.919 99.773 0.867c33.621-0.052 60.913 27.033 60.964 60.507 0.009 5.316-0.669 10.473-1.952 15.389 -0.015 0.047-11.729 42.121-18.293 55.052C140.06 132.667 138.942 134.247 138.275 134.933z" fill="none" stroke="#9d521b" stroke-width="1.5" opacity="1"></path></g></g><g id="svga-group-mouth-single-move" transform="matrix(1,0,0,1,0,0)"><g id="svga-group-mouth-single" transform="matrix(1,0,0,1,0,0)"><path id="SvgjsPath10879" d="M99.983 141.177c-3.24 0-4.753-3.8-4.753-3.8s4.826 0.199 9.279 0.933C104.509 138.31 102.832 141.177 99.983 141.177z" fill="url(#SvgjsLinearGradient10880)" opacity="1"></path><path id="SvgjsPath10883" d="M87.792 135.571c-0.373-0.33 1.528-3.373 3.926-4.045 3.031-0.882 5.759 0.026 7.991 0.413 2.034 0.354 5.041 0.049 7.028 0.579 2.249 0.6 8.464 3.283 7.981 3.8 -0.238 0.255-4.963-1.676-8.076-2.278 -1.98-0.384-4.881-0.086-6.874-0.413 -2.062-0.337-4.47-1.21-7.268-0.805C89.962 133.189 88.217 135.947 87.792 135.571z" fill="#9d521b" stroke-width="none" opacity="1" stroke="none"></path></g></g><g id="svga-group-eyes-left-move" transform="matrix(1,0,0,1,0,0)"><g id="svga-group-eyes-left" transform="matrix(1,0,0,1,0,0)"><g id="svga-group-eyesback-left"><path id="SvgjsPath10799" d="M74.8 71.999c7.18 0 13 5.82 13 13 0 7.18-5.82 13-13 13s-13-5.82-13-13C61.8 77.819 67.62 71.999 74.8 71.999z" fill="url(#SvgjsRadialGradient10800)" opacity="1"></path></g><g id="svga-group-eyesiriswrapper-left" transform="matrix(1,0,0,1,1,1)"><g id="svga-group-eyesiriscontrol-left" transform="matrix(1,0,0,1,0,0)"><g id="svga-group-eyesiris-left" transform="matrix(1,0,0,1,0,0)"><path id="SvgjsPath10837" d="M72.59 83.677l-4.437-1.012C68.056 83.095 68 83.54 68 83.999c0 0.459 0.057 0.905 0.154 1.334L74 83.999 72.59 83.677z" fill="#ea2e2e" stroke-width="none" opacity="1"></path><path id="SvgjsPath10838" d="M69.313 87.738c0.559 0.7 1.271 1.268 2.086 1.661l2.6-5.399L69.313 87.738z" fill="#f09330" stroke-width="none" opacity="1"></path><path id="SvgjsPath10839" d="M74 89.999c0.933 0 1.813-0.219 2.6-0.599L74 84 74 89.999z" fill="#64398e" stroke-width="none" opacity="1"></path><path id="SvgjsPath10840" d="M74 84l4.688 3.738c0.554-0.693 0.955-1.51 1.158-2.404L74 84z" fill="#393b97" stroke-width="none" opacity="1"></path><path id="SvgjsPath10841" d="M74 83.999l1.826-0.416 4.02-0.918c-0.203-0.894-0.604-1.711-1.158-2.404L74 83.999z" fill="#00aa4f" stroke-width="none" opacity="1"></path><path id="SvgjsPath10842" d="M76.6 78.598c-0.788-0.38-1.667-0.599-2.6-0.599v5.999L76.6 78.598z" fill="#fae636" stroke-width="none" opacity="1"></path><path id="SvgjsPath10843" d="M71.398 78.599c-0.814 0.393-1.527 0.961-2.086 1.662l4.687 3.738L71.398 78.599z" fill="#9c2d91" stroke-width="none" opacity="1"></path><path id="SvgjsPath10844" d="M74 83.999l5.846 1.334C79.943 84.904 80 84.458 80 83.999s-0.057-0.905-0.154-1.334l-4.02 0.918L74 83.999z" fill="#ea2e2e" stroke-width="none" opacity="1"></path><path id="SvgjsPath10845" d="M74 83.999L74 83.999 74 83.999l2.601 5.401c0.815-0.394 1.528-0.962 2.087-1.662L74 83.999 74 83.999z" fill="#9b328d" stroke-width="none" opacity="1"></path><path id="SvgjsPath10846" d="M74 84L74 84 74 84 74 84 74 84 74 84 74 84l-2.6 5.4c0.787 0.38 1.667 0.599 2.6 0.599h0L74 84 74 84z" fill="#fde92b" stroke-width="none" opacity="1"></path><path id="SvgjsPath10847" d="M74 84L74 84 74 84 74 84 74 84 74 84 74 84 74 84 74 84 74 84 74 84l-5.845 1.334c0.203 0.894 0.605 1.712 1.158 2.405L74 84 74 84z" fill="#00aa4f" stroke-width="none" opacity="1"></path><path id="SvgjsPath10848" d="M74 83.999L74 83.999 74 83.999 74 83.999 74 83.999 74 83.999 74 83.999v-6c-0.934 0-1.813 0.219-2.601 0.599L74 83.999 74 83.999z" fill="#65378f" stroke-width="none" opacity="1"></path><path id="SvgjsPath10849" d="M74 83.999L74 83.999 74 83.999l4.688-3.739c-0.559-0.7-1.272-1.269-2.087-1.662L74 83.999 74 83.999z" fill="#ec9236" stroke-width="none" opacity="1"></path><path id="SvgjsPath10850" d="M74 83.999L74 83.999l-4.688-3.739c-0.554 0.693-0.955 1.511-1.158 2.404l4.436 1.013L74 83.999z" fill="#393b97" stroke-width="none" opacity="1"></path><path id="SvgjsPath10851" d="M74 77.999c3.314 0 6 2.686 6 6s-2.686 6-6 6 -6-2.686-6-6S70.686 77.999 74 77.999z" fill="#000000" stroke-width="none" opacity="0.3"></path><path id="SvgjsPath10852" d="M76.333 83.999c0 1.289-1.044 2.333-2.333 2.333s-2.333-1.045-2.333-2.333 1.044-2.333 2.333-2.333S76.333 82.71 76.333 83.999z" fill="#000000" stroke-width="none" opacity="1"></path><path id="SvgjsPath10853" d="M71.769 88.072c-0.313 0.313-0.931 0.202-1.38-0.246 -0.449-0.449-0.56-1.067-0.246-1.38 0.313-0.313 0.93-0.203 1.379 0.246C71.971 87.141 72.082 87.759 71.769 88.072z" fill="#ffffff" stroke-width="none" opacity="0.6"></path><path id="SvgjsPath10854" d="M78.539 82.884c-0.468 0.469-1.602 0.094-2.533-0.836s-1.305-2.065-0.837-2.533c0.469-0.469 1.604-0.095 2.533 0.836C78.633 81.281 79.008 82.416 78.539 82.884z" fill="#ffffff" stroke-width="none" opacity="0.9"></path></g></g></g><g id="svga-group-eyesfront-left"><path id="SvgjsPath10824" d="M56.198 84.999c0 13.807 8.507 25 19 25s19-11.193 19-25 -8.507-25-19-25S56.198 71.192 56.198 84.999zM61.8 84.999c0-7.18 5.82-13 13-13s13 5.82 13 13c0 7.18-5.82 13-13 13S61.8 92.179 61.8 84.999z" fill="#cb8d60" stroke-width="none" opacity="1" stroke="none"></path><path id="SvgjsPath10825" d="M61.8 84.999c0 7.18 5.82 13 13 13s13-5.82 13-13c0-7.18-5.82-13-13-13S61.8 77.819 61.8 84.999zM62.8 84.999c0-6.627 5.373-12 12-12s12 5.373 12 12c0 6.628-5.373 12-12 12S62.8 91.627 62.8 84.999z" fill="#131111" stroke-width="none" opacity="1" stroke="none"></path></g></g></g><g id="svga-group-eyes-right-move" transform="matrix(1,0,0,1,0,0)"><g id="svga-group-eyes-right" transform="matrix(1,0,0,1,0,0)"><g id="svga-group-eyesback-right"><path id="SvgjsPath10807" d="M137.801 84.999c0 7.18-5.82 13-13 13s-13-5.82-13-13c0-7.18 5.82-13 13-13S137.801 77.819 137.801 84.999z" fill="url(#SvgjsRadialGradient10808)" opacity="1"></path></g><g id="svga-group-eyesiriswrapper-right" transform="matrix(1,0,0,1,-1,1)"><g id="svga-group-eyesiriscontrol-right" transform="matrix(1,0,0,1,0,0)"><g id="svga-group-eyesiris-right" transform="matrix(1,0,0,1,0,0)"><path id="SvgjsPath10855" d="M124.591 83.677l-4.438-1.012c-0.098 0.43-0.153 0.875-0.153 1.334 0 0.459 0.057 0.905 0.154 1.334l5.845-1.334L124.591 83.677z" fill="#ea2e2e" stroke-width="none" opacity="1"></path><path id="SvgjsPath10856" d="M121.313 87.738c0.559 0.7 1.272 1.268 2.086 1.661L125.999 84 121.313 87.738z" fill="#f09330" stroke-width="none" opacity="1"></path><path id="SvgjsPath10857" d="M126.001 89.999c0.933 0 1.813-0.219 2.6-0.599L126 84 126.001 89.999z" fill="#64398e" stroke-width="none" opacity="1"></path><path id="SvgjsPath10858" d="M126 84l4.688 3.738c0.553-0.693 0.953-1.51 1.157-2.404L126 84z" fill="#393b97" stroke-width="none" opacity="1"></path><path id="SvgjsPath10859" d="M126 83.999l1.825-0.416 4.021-0.918c-0.204-0.894-0.604-1.711-1.157-2.404L126 83.999z" fill="#00aa4f" stroke-width="none" opacity="1"></path><path id="SvgjsPath10860" d="M128.601 78.598c-0.788-0.38-1.668-0.599-2.601-0.599v5.999L128.601 78.598z" fill="#fae636" stroke-width="none" opacity="1"></path><path id="SvgjsPath10861" d="M123.398 78.599c-0.813 0.393-1.527 0.961-2.087 1.662l4.688 3.738L123.398 78.599z" fill="#9c2d91" stroke-width="none" opacity="1"></path><path id="SvgjsPath10862" d="M126 83.999l5.846 1.334c0.098-0.43 0.154-0.875 0.154-1.334s-0.057-0.905-0.154-1.334l-4.021 0.918L126 83.999z" fill="#ea2e2e" stroke-width="none" opacity="1"></path><path id="SvgjsPath10863" d="M126 83.999L126 83.999 126 83.999l2.601 5.401c0.814-0.394 1.529-0.962 2.088-1.662L126 83.999 126 83.999z" fill="#9b328d" stroke-width="none" opacity="1"></path><path id="SvgjsPath10864" d="M126 84L126 84 126 84 126 84 126 84 126 84 126 84l-2.601 5.4c0.787 0.38 1.668 0.599 2.601 0.599h0.001L126 84 126 84z" fill="#fde92b" stroke-width="none" opacity="1"></path><path id="SvgjsPath10865" d="M125.999 84L125.999 84 125.999 84 125.999 84 125.999 84 125.999 84 125.999 84 125.999 84 125.999 84 125.999 84 125.999 84l-5.845 1.334c0.204 0.894 0.604 1.712 1.158 2.405L125.999 84 125.999 84z" fill="#00aa4f" stroke-width="none" opacity="1"></path><path id="SvgjsPath10866" d="M126 83.999L126 83.999 126 83.999 126 83.999 126 83.999 126 83.999 126 83.999v-6c-0.934 0-1.813 0.219-2.601 0.599L126 83.999 126 83.999z" fill="#65378f" stroke-width="none" opacity="1"></path><path id="SvgjsPath10867" d="M126 83.999L126 83.999 126 83.999l4.688-3.739c-0.559-0.7-1.273-1.269-2.088-1.662L126 83.999 126 83.999z" fill="#ec9236" stroke-width="none" opacity="1"></path><path id="SvgjsPath10868" d="M125.999 83.999L125.999 83.999l-4.688-3.739c-0.553 0.693-0.953 1.511-1.157 2.404l4.437 1.013L125.999 83.999z" fill="#393b97" stroke-width="none" opacity="1"></path><path id="SvgjsPath10869" d="M126 77.999c3.313 0 6 2.686 6 6s-2.687 6-6 6 -6-2.686-6-6S122.687 77.999 126 77.999z" fill="#000000" stroke-width="none" opacity="0.3"></path><path id="SvgjsPath10870" d="M128.333 83.999c0 1.289-1.044 2.333-2.333 2.333s-2.333-1.045-2.333-2.333 1.044-2.333 2.333-2.333S128.333 82.71 128.333 83.999z" fill="#000000" stroke-width="none" opacity="1"></path><path id="SvgjsPath10871" d="M123.769 88.072c-0.313 0.313-0.93 0.202-1.379-0.246 -0.449-0.449-0.561-1.067-0.246-1.38 0.313-0.313 0.93-0.203 1.379 0.246C123.971 87.141 124.081 87.759 123.769 88.072z" fill="#ffffff" stroke-width="none" opacity="0.6"></path><path id="SvgjsPath10872" d="M130.539 82.884c-0.468 0.469-1.603 0.094-2.533-0.836s-1.305-2.064-0.837-2.533c0.469-0.469 1.604-0.095 2.533 0.836C130.633 81.281 131.008 82.416 130.539 82.884z" fill="#ffffff" stroke-width="none" opacity="0.9"></path></g></g></g><g id="svga-group-eyesfront-right"><path id="SvgjsPath10835" d="M124.402 59.999c-10.493 0-19 11.193-19 25s8.507 25 19 25 19-11.193 19-25S134.896 59.999 124.402 59.999zM124.801 98c-7.18 0-13-5.82-13-13 0-7.18 5.82-13 13-13s13 5.82 13 13C137.801 92.179 131.98 98 124.801 98z" fill="#cb8d60" stroke-width="none" opacity="1" stroke="none"></path><path id="SvgjsPath10836" d="M124.801 71.999c-7.18 0-13 5.82-13 13 0 7.18 5.82 13 13 13s13-5.82 13-13C137.801 77.819 131.98 71.999 124.801 71.999zM124.801 96.999c-6.627 0-12-5.372-12-12 0-6.627 5.373-12 12-12s12 5.373 12 12C136.801 91.627 131.428 96.999 124.801 96.999z" fill="#131111" stroke-width="none" opacity="1" stroke="none"></path></g></g></g><g id="svga-group-facehighlight-single"><path id="SvgjsPath10624" d="M141 113.974c0.035 22.622-18.292 40.994-40.938 41.025 -22.642 0.037-41.028-18.273-41.063-40.9 -0.035-22.62 18.292-41.064 40.937-41.1C122.579 72.964 140.967 91.349 141 113.974z" fill="url(#SvgjsRadialGradient10625)" opacity="1"></path><path id="SvgjsPath10628" d="M137.5 53.999c0 20.711-16.789 37.5-37.499 37.5 -20.711 0-37.501-16.789-37.501-37.5s16.79-37.5 37.501-37.5C120.711 16.499 137.5 33.288 137.5 53.999z" fill="url(#SvgjsRadialGradient10629)" opacity="1"></path></g><g id="svga-group-eyebrows-left-move" transform="matrix(1,0,0,1,0,0)"><g id="svga-group-eyebrows-left-rotate" transform="matrix(1,0,0,1,0,0)"><g id="svga-group-eyebrows-left" transform="matrix(1,0,0,1,0,0)"><path id="SvgjsPath10873" d="M90.857 74.446c-12.948-4.229-18.875-4.225-33.252-2.519 -0.434 0.051-2.459 0.548-2.637 0.221 11.896-2.694 21.942-3.566 33.164 0.925C88.531 73.233 90.911 74.118 90.857 74.446z" fill="#543c32" stroke-width="none" opacity="1"></path></g></g></g><g id="svga-group-eyebrows-right-move" transform="matrix(1,0,0,1,0,0)"><g id="svga-group-eyebrows-right-rotate" transform="matrix(1,0,0,1,0,0)"><g id="svga-group-eyebrows-right" transform="matrix(1,0,0,1,0,0)"><path id="SvgjsPath10874" d="M108.978 74.414c9.882-6.264 21.947-6.458 33.14-3.238 0.444 0.128 2.899 0.624 2.915 1.026C120.586 66.812 108.978 74.414 108.978 74.414z" fill="#543c32" stroke-width="none" opacity="1"></path></g></g></g><g id="svga-group-nose-single-move" transform="matrix(1,0,0,1,0,0)"><g id="svga-group-nose-single" transform="matrix(1,0,0,1,0,0)"><path id="SvgjsPath10884" d="M101.103 118.646c-0.471 0.511-0.857 0.45-1.3-0.08l-4.951-5.988h12.15L101.103 118.646z" fill="#bc7746" stroke-width="none" opacity="1"></path><path id="SvgjsPath10885" d="M93.465 113.508l6.435 5.234c0.537 0.437 0.744 0.271 0.463-0.367l-2.294-5.2c-0.112-0.252-0.146-0.675-0.078-0.942L99.355 103l-6.072 8.74C92.848 112.277 92.928 113.072 93.465 113.508z" fill="#9d521b" stroke-width="none" opacity="1"></path></g></g><g id="svga-group-beardwrap" transform="matrix(1,0,0,1,0,0)"><g id="svga-group-beard-single-move" transform="matrix(1,0,0,1,0,0)"><g id="svga-group-beard-single" transform="matrix(1,0,0,1,0,0)"><path id="SvgjsPath10642" d="M100,18.13L100,18.13L100,18.13L100,18.13z" fill="#543c32" stroke-width="none" opacity="1" stroke="none"></path></g></g></g><g id="svga-group-mustache-single-move" transform="matrix(1,0,0,1,0,0)"><g id="svga-group-mustache-single" transform="matrix(1,0,0,1,0,0)"><path id="SvgjsPath10640" d="M100,18.13L100,18.13L100,18.13L100,18.13z" fill="#543c32" stroke-width="none" opacity="1" stroke="none"></path></g></g><g id="svga-group-hair-front" transform="matrix(1,0,0,1,0,0)"><path id="SvgjsPath10794" d="M45.066 90.479c-1.663-4.941-4.339-12.356-8.735-15.286 -2.688-14.785-7.848-34.075 7.836-52.385 3.342-3.917 7.695-7.354 12.827-8.128C69.672-4.083 84.836-12.747 119.576-1.432c52.479 15.34 43.691 53.39 41.853 76.293 -2.476 2.597-4.824 9.932-6.139 14.359 -1.17-25.195-10.647-60.91-38.688-60.91 -14.208 0-17.067 5.674-37.26 3.394C42.051 28.826 48.983 73.242 45.066 90.479z" fill="#543c32" stroke-width="none" opacity="1"></path><path id="SvgjsPath10795" d="M102.566 19.442C88.011 22.011 80 16 83 5c-5.661 3.59-7.699 9.31-6.903 14.442C72.65 15.482 72.796 8.737 74.843 1c-8.02 8.578-9.465 16.139-7.549 23.801 -5.012-5.458-8.708-12.687-3.697-18.978 -2.321 2.513-4.498 5.343-6.603 8.459 -0.479 0.072-4.142 2.217-4.142 2.217 2.935 0 9.319 2.98 13.005 9.154 -4.542-1.424-10.958 0.219-13.534 2.379 -9.399 7.885-14.204 20.903-7.164 61.423 2.253-11.969 1.543-23.55 3.268-33.198 2.885-16.144 10.068-26.874 30.916-24.951 20.192 2.28 23.052-3.394 37.26-3.394 28.04 0 37.518 35.715 38.688 60.91 1.314-4.427 3.663-11.762 6.139-14.359 0.302-3.759 0.416-3.52 0.79-7.927C153.869 28.485 133.09 14.055 102.566 19.442z" fill="#351f15" stroke-width="none" opacity="1"></path><path id="SvgjsPath10796" d="M39.369 61.985c-3.731-41.197 18.025-41.045 21-38.75C56.222 22.745 42.114 19.045 39.369 61.985zM86.619 9.485c1.66 4.085 4.553 6.995 10.868 7.394 0 0 1.125 0.776 17.403-2.094 2.292-0.411 3.952-0.545 4.729-0.549C107.662 13.148 93.121 20.9 86.619 9.485zM150.391 26.592c0 0-0.389-0.601-1.072-1.436 -9.444-11.944-25.151-12.229-24.199-11.171 -0.937-1.19 19.347 2.377 26.987 18.344 4.835 8.836 1.414 2.542 5.513 10.656C154.017 31.66 152.175 29.292 150.391 26.592zM130.182 17.505c0 0-1.276-0.383-2.578-0.662 -1.301-0.277-2.615-0.469-2.614-0.469 -3.583-0.505-6.562-0.275-8.37-0.138 6.199 0.063 15.622 1.509 20.75 5.5C135.201 19.539 132.727 18.172 130.182 17.505zM37.369 44.735c-1.341 9.794-1.69 21.234 3.25 29.75C37.33 66.374 37.256 53.492 37.369 44.735zM73.543 28.958c0.823 0.173 1.125 0.078 1.125 0.078s-0.278 0.029-1.063-0.253c-6.856-2.076-9.987-15.147 1.013-27.297C61.436 11.777 64.929 27.814 73.543 28.958zM82.619 5.235C78.885 8.15 76.356 11.463 75.917 16c-0.636 7.067 3.239 12.869 10.953 13.485C74.702 26.658 75.11 13.108 82.619 5.235zM109.42 10.36c0 0-8.481 0.526-16.551-2.875 8.332 4.85 17.038 4.377 27 2.5C115.675 10.167 113.511 10.273 109.42 10.36z" fill="#452c22" stroke-width="none" opacity="1"></path><path id="SvgjsPath10797" d="M122.869 8.069c-10.39 0.727-12.784 0.221-17.333-2.333C111.313 8.266 113.479 7.609 122.869 8.069zM86.367 16.514c-5.562-5.748-3.748-8.528-3.748-8.528s-2.659 7.062 6.636 11.581c5.177 2.818 14.232 0.009 16.864-0.331C102.686 19.224 91.563 21.687 86.367 16.514zM59.369 25.235c-18.715 0.179-19.006 29.31-16.603 47.764C43.266 55.375 42.898 27.77 59.369 25.235zM160.737 62.366c-2.301-13.429-7.88-28.915-19.618-35.88C150.653 34.103 157.559 51.017 160.737 62.366zM159.619 44.235c-0.742-13.17-7.966-23.253-18.114-30.338C150.438 22.187 157.423 32.042 159.619 44.235zM133.869 8.735c-11.854-6.716-22.503-11.642-36.5-7.5C110.17-0.881 120.844 3.054 133.869 8.735zM82.869-2.015c-10.119 0.956-17.762 5.85-18.528 15.99C65.948 3.828 73.604-0.092 82.869-2.015zM75.254 13.19C77.523 1.846 85.291-0.489 94.426-2.125 84.84-1.67 75.651 1.79 75.254 13.19z" fill="#634e45" stroke-width="none" opacity="1"></path><path id="SvgjsPath10798" d="M119.669-2.115c-35.293-11.496-50.395-2.204-62.85 16.12 -5.104 0.782-9.536 4.29-12.88 8.21 -15.82 18.468-10.556 38.009-7.88 52.76 4.675 3.016 7.39 11.212 9.05 16.18 4.515-16.777-3.539-62.465 34.2-59.55 20.792 2.347 23.297-3.704 38.46-3.38 25.709-1.096 36.541 36.643 37.29 62.45 1.127-3.874 3.839-13.236 6.659-16.08C163.233 55.411 174.156 13.812 119.669-2.115zM160.739 74.995c-2.396 2.86-4.208 7.944-5.22 11.51 0.247-23.89-10.323-61.938-37.74-61.06 -15.95-0.254-17.956 5.64-38.19 3.59 -18.563-1.35-28.966 9.705-32.23 26.71 -1.966 9.824-0.408 22.838-2.2 33.51 -1.491-4.808-4.014-11.26-8.21-14.08 -1.698-18.831-5.956-33.256 8.28-51.85 3.022-3.928 8.035-7.64 12.89-8.72 6.947-7.295 15.002-29.315 60.86-14.46C167.916 14.516 162.6 50.069 160.739 74.995z" fill="#26130b" stroke-width="none" opacity="1"></path></g><g id="svga-group-glasses-single-move" transform="matrix(1,0,0,1,0,0)"><g id="svga-group-glasses-single" transform="matrix(1,0,0,1,0,0)"><path id="SvgjsPath10875" d="M148.74 83.98c-0.07 5.17-2.36 10.62-5.3 14.98 -2.86 4.24-10.31 5.75-15.82 5.75 -4.5 0-8.51-0.92-11.02-2.53 -4.73-3.04-9.81-10.61-10.93-17.83C115.84 78.24 136.81 78.24 148.74 83.98zM51.26 83.28c-0.14 5.38 2.23 11.13 5.3 15.68 2.86 4.24 10.31 5.75 15.82 5.75 4.5 0 8.51-0.92 11.02-2.53 4.59-2.95 9.5-10.16 10.81-17.18C83.4 78.66 62.6 77.97 51.26 83.28z" fill="#ffffff" stroke-width="none" opacity="0.2"></path><path id="SvgjsPath10876" d="M148.74 83.98c-11.93-5.73-32.9-5.74-43.06 0.36 -0.17-1.1-0.25-2.19-0.23-3.26 0.22-8.25 12.02-11.18 22.06-11.18 7.08 0 15.44 1.47 18.14 4.74C147.91 77.39 148.79 80.62 148.74 83.98zM72.49 69.9c-7.08 0-15.44 1.47-18.14 4.74 -2.1 2.55-3.01 5.53-3.09 8.64 11.35-5.31 32.14-4.62 42.94 1.71 0.25-1.32 0.38-2.63 0.34-3.91C94.32 72.83 82.52 69.9 72.49 69.9z" fill="#ffffff" stroke-width="none" opacity="0.4"></path><path id="SvgjsPath10877" d="M154.48 72.86c-0.6-2.41-28.01-7.28-42.24-2.39 -3.44 1.18-5.82 2.23-7.24 3.72l0-0.02c-0.5 0.88-1.75 1.18-2.64 0.85 -1.6-0.61-3.22-0.58-4.72 0 -0.88 0.34-2.14 0.03-2.64-0.85l0 0.02c-1.42-1.49-3.79-2.53-7.24-3.72 -14.23-4.89-41.64-0.01-42.24 2.39 -0.23 0.95-0.54 6.06-0.52 7.89 0.02 1.83 1.16 1.69 2.87 2.49 0.66 0.31 2.04 2.67 2.17 3.64 0.63 4.54 2.44 8.75 5.26 12.93 4.82 7.14 21.71 8.27 28.91 3.64 4.98-3.2 10.14-10.73 11.51-18.22 0.27-1.49 0.52-2.65 0.71-3.65l0.01 0.05c0.36-1.23 1.97-1.83 3.57-1.86 1.6 0.03 3.21 0.63 3.57 1.86l0.01-0.05c0.18 1 0.44 2.16 0.71 3.65 1.37 7.49 6.53 15.02 11.51 18.22 7.2 4.63 24.09 3.5 28.91-3.64 2.82-4.18 4.63-8.39 5.26-12.93 0.13-0.98 1.51-3.34 2.17-3.64 1.71-0.8 2.86-0.65 2.87-2.49C155.02 78.92 154.71 73.8 154.48 72.86zM83.12 101.75c-6.38 4.1-22.02 3.04-26.15-3.07 -4.7-6.98-7.82-16.94-2.24-23.72 5.38-6.53 38.94-7.32 39.31 6.13C94.26 88.99 88.46 98.32 83.12 101.75zM143.03 98.68c-4.13 6.12-19.77 7.17-26.15 3.07 -5.34-3.43-11.14-12.76-10.92-20.66 0.37-13.45 33.93-12.66 39.31-6.13C150.85 81.73 147.73 91.7 143.03 98.68z" fill="#c20b0b" stroke-width="none" opacity="1"></path><path id="SvgjsPath10878" d="M45.37 73.94c0.05-0.5 0.1-0.89 0.15-1.09 0.6-2.41 28.01-7.28 42.24-2.39 3.44 1.18 5.82 2.23 7.24 3.72l0-0.02C95 74.15 73 62.54 45.37 73.94zM153.92 82.5c0.67-0.3 1.07-0.7 1.08-1.77 0.02-1.82-0.29-6.94-0.52-7.89 -0.6-2.41-28.01-7.28-42.24-2.39 -3.28 1.13-5.59 2.14-7.03 3.52 7.52-5.95 38.17-7.14 46.39 1.02C153.3 76.69 153.84 79.91 153.92 82.5z" fill="#d12121" stroke-width="none" opacity="1"></path></g></g></g></g></g><rect id="svga-credit-rect" width="200" height="15" x="0" y="185" fill="#ecf0f1" opacity="0.5" style="display: none;"></rect><text id="svga-credit-text" font-family="Avenir Next, Roboto, Helvetica, Arial, sans-serif" font-size="10px" text-anchor="start" font-weight="400" size="10px" anchor="start" weight="400" fill="#333333" x="33.3125" y="182.609375" style="display: none;"><tspan id="SvgjsTspan10611" dy="13" x="33.3125">Created on AvatarMaker.com</tspan></text></g></svg>